<mxfile host="app.diagrams.net" modified="2022-03-24T09:07:41.250Z" agent="5.0 (Windows)" etag="4-b3k-djqrCfnw4B7hDa" version="17.2.1" type="github">
  <diagram id="ev4mIAbjgl6Iq2Y9axXj" name="Page-1">
    <mxGraphModel dx="1422" dy="752" grid="1" gridSize="10" guides="1" tooltips="1" connect="1" arrows="1" fold="1" page="1" pageScale="1" pageWidth="827" pageHeight="1169" math="0" shadow="0">
      <root>
        <mxCell id="0" />
        <mxCell id="1" parent="0" />
        <mxCell id="A9bdl9xAKXF_S5kQTbBC-1" value="&lt;div&gt;Master1&lt;/div&gt;" style="image;html=1;image=img/lib/clip_art/computers/Server_128x128.png" vertex="1" parent="1">
          <mxGeometry x="180" y="200" width="80" height="80" as="geometry" />
        </mxCell>
        <mxCell id="A9bdl9xAKXF_S5kQTbBC-2" value="&lt;div&gt;Master2&lt;/div&gt;" style="image;html=1;image=img/lib/clip_art/computers/Server_128x128.png" vertex="1" parent="1">
          <mxGeometry x="520" y="200" width="80" height="80" as="geometry" />
        </mxCell>
        <mxCell id="A9bdl9xAKXF_S5kQTbBC-3" value="Slave1" style="image;html=1;image=img/lib/clip_art/computers/Server_128x128.png" vertex="1" parent="1">
          <mxGeometry x="30" y="430" width="80" height="80" as="geometry" />
        </mxCell>
        <mxCell id="A9bdl9xAKXF_S5kQTbBC-4" value="&lt;div&gt;Slave2&lt;/div&gt;" style="image;html=1;image=img/lib/clip_art/computers/Server_128x128.png" vertex="1" parent="1">
          <mxGeometry x="334" y="430" width="80" height="80" as="geometry" />
        </mxCell>
        <mxCell id="A9bdl9xAKXF_S5kQTbBC-7" value="&lt;div&gt;Slave3&lt;/div&gt;" style="image;html=1;image=img/lib/clip_art/computers/Server_128x128.png" vertex="1" parent="1">
          <mxGeometry x="640" y="430" width="80" height="80" as="geometry" />
        </mxCell>
        <mxCell id="A9bdl9xAKXF_S5kQTbBC-8" value="Slave4" style="image;html=1;image=img/lib/clip_art/computers/Server_128x128.png" vertex="1" parent="1">
          <mxGeometry x="29" y="630" width="80" height="80" as="geometry" />
        </mxCell>
        <mxCell id="A9bdl9xAKXF_S5kQTbBC-9" value="&lt;div&gt;Slave5&lt;/div&gt;" style="image;html=1;image=img/lib/clip_art/computers/Server_128x128.png" vertex="1" parent="1">
          <mxGeometry x="333" y="630" width="80" height="80" as="geometry" />
        </mxCell>
        <mxCell id="A9bdl9xAKXF_S5kQTbBC-10" value="&lt;div&gt;Slave6&lt;/div&gt;" style="image;html=1;image=img/lib/clip_art/computers/Server_128x128.png" vertex="1" parent="1">
          <mxGeometry x="639" y="630" width="80" height="80" as="geometry" />
        </mxCell>
        <mxCell id="A9bdl9xAKXF_S5kQTbBC-11" value="" style="endArrow=classic;html=1;rounded=0;entryX=0.5;entryY=0;entryDx=0;entryDy=0;" edge="1" parent="1" source="A9bdl9xAKXF_S5kQTbBC-1" target="A9bdl9xAKXF_S5kQTbBC-12">
          <mxGeometry width="50" height="50" relative="1" as="geometry">
            <mxPoint x="230" y="400" as="sourcePoint" />
            <mxPoint x="280" y="350" as="targetPoint" />
          </mxGeometry>
        </mxCell>
        <mxCell id="A9bdl9xAKXF_S5kQTbBC-12" value="Partition-0" style="rounded=0;whiteSpace=wrap;html=1;fillColor=none;labelPosition=center;verticalLabelPosition=top;align=center;verticalAlign=bottom;" vertex="1" parent="1">
          <mxGeometry x="20" y="380" width="220" height="430" as="geometry" />
        </mxCell>
        <mxCell id="A9bdl9xAKXF_S5kQTbBC-16" value="Partition-1" style="rounded=0;whiteSpace=wrap;html=1;fillColor=none;labelPosition=center;verticalLabelPosition=top;align=center;verticalAlign=bottom;" vertex="1" parent="1">
          <mxGeometry x="320" y="380" width="220" height="430" as="geometry" />
        </mxCell>
        <mxCell id="A9bdl9xAKXF_S5kQTbBC-17" value="Partition-2" style="rounded=0;whiteSpace=wrap;html=1;fillColor=none;labelPosition=center;verticalLabelPosition=top;align=center;verticalAlign=bottom;" vertex="1" parent="1">
          <mxGeometry x="607" y="380" width="220" height="430" as="geometry" />
        </mxCell>
        <mxCell id="A9bdl9xAKXF_S5kQTbBC-20" value="" style="endArrow=classic;html=1;rounded=0;entryX=0.5;entryY=0;entryDx=0;entryDy=0;" edge="1" parent="1" source="A9bdl9xAKXF_S5kQTbBC-1" target="A9bdl9xAKXF_S5kQTbBC-16">
          <mxGeometry width="50" height="50" relative="1" as="geometry">
            <mxPoint x="219.85915492957747" y="290" as="sourcePoint" />
            <mxPoint x="194.50704225352115" y="390" as="targetPoint" />
          </mxGeometry>
        </mxCell>
        <mxCell id="A9bdl9xAKXF_S5kQTbBC-21" value="" style="endArrow=classic;html=1;rounded=0;entryX=0.5;entryY=0;entryDx=0;entryDy=0;" edge="1" parent="1" source="A9bdl9xAKXF_S5kQTbBC-1" target="A9bdl9xAKXF_S5kQTbBC-17">
          <mxGeometry width="50" height="50" relative="1" as="geometry">
            <mxPoint x="204.28571428571422" y="290" as="sourcePoint" />
            <mxPoint x="140" y="390" as="targetPoint" />
          </mxGeometry>
        </mxCell>
        <mxCell id="A9bdl9xAKXF_S5kQTbBC-22" value="" style="endArrow=classic;html=1;rounded=0;entryX=0.5;entryY=0;entryDx=0;entryDy=0;" edge="1" parent="1" source="A9bdl9xAKXF_S5kQTbBC-2" target="A9bdl9xAKXF_S5kQTbBC-12">
          <mxGeometry width="50" height="50" relative="1" as="geometry">
            <mxPoint x="214.28571428571422" y="300" as="sourcePoint" />
            <mxPoint x="150" y="400" as="targetPoint" />
          </mxGeometry>
        </mxCell>
        <mxCell id="A9bdl9xAKXF_S5kQTbBC-23" value="" style="endArrow=classic;html=1;rounded=0;entryX=0.5;entryY=0;entryDx=0;entryDy=0;" edge="1" parent="1" source="A9bdl9xAKXF_S5kQTbBC-2" target="A9bdl9xAKXF_S5kQTbBC-16">
          <mxGeometry width="50" height="50" relative="1" as="geometry">
            <mxPoint x="530" y="263.0232558139535" as="sourcePoint" />
            <mxPoint x="140" y="390" as="targetPoint" />
          </mxGeometry>
        </mxCell>
        <mxCell id="A9bdl9xAKXF_S5kQTbBC-24" value="" style="endArrow=classic;html=1;rounded=0;entryX=0.5;entryY=0;entryDx=0;entryDy=0;" edge="1" parent="1" source="A9bdl9xAKXF_S5kQTbBC-2" target="A9bdl9xAKXF_S5kQTbBC-17">
          <mxGeometry width="50" height="50" relative="1" as="geometry">
            <mxPoint x="532.8571428571429" y="290" as="sourcePoint" />
            <mxPoint x="440" y="390" as="targetPoint" />
          </mxGeometry>
        </mxCell>
      </root>
    </mxGraphModel>
  </diagram>
</mxfile>
